# xmcd CD database file
#
# Track frame offsets:
#	150
#	8945
#	18068
#	34508
#	44774
#	59166
#	70299
#	84067
#	94856
#	104758
#	114109
#	126379
#
# Disc length: 1817 seconds
#
# Revision: 0
# Processed by: cddbd v1.5.2PL0 Copyright (c) Steve Scherf et al.
# Submitted via: CDex 1.70beta3
#
DISCID=9c07170c
DTITLE=Dom Um Romão - Dom Um
DYEAR=1964
DGENRE=Jazz
TTITLE0=Telefone
TTITLE1=Jangal
TTITLE2=Vivo Sonhando
TTITLE3=Consolação
TTITLE4=África
TTITLE5=Samba Nagô
TTITLE6=Diz Que Fui Por Aí
TTITLE7=Zona Sul
TTITLE8=Zambezi
TTITLE9=Fica Mal Com Deus
TTITLE10=Birimbau
TTITLE11=Dom Um Sete
EXTD=YEAR: 1964
EXTT0=
EXTT1=
EXTT2=
EXTT3=
EXTT4=
EXTT5=
EXTT6=
EXTT7=
EXTT8=
EXTT9=
EXTT10=
EXTT11=
PLAYORDER=
